# xmcd
#
# Track frame offsets: 
#        150
#        20568
#        37999
#        49427
#        72707
#        85473
#        100279
#        117785
#        132391
#        148617
#        167429
#        181602
#        191698
#        206930
#        221198
#
# Disc length: 3228 seconds
#
# Revision: 1
# Processed by: cddbd v1.4PL0 Copyright (c) Steve Scherf et al.
# Submitted via: ExactAudioCopy v0.90b4
#
DISCID=e70c9a0f
DTITLE=Various Artist - A Measure Of Blues III
DYEAR=2000
DGENRE=Blues
TTITLE0=Ain't That Just Like A Woman - Omar and The Howlers (127 BPM)
TTITLE1=It Should've Been Me - Jump N' Jive (112 BPM)
TTITLE2=Afterglow - Swing Party (119 BPM)
TTITLE3=Can't Take Another Day - Marv Johnson (113 BPM)
TTITLE4=Think - Rusty Zinn (125 BPM)
TTITLE5=Good Lover - Lisa Best (98 BPM)
TTITLE6=Spinnin' Round And Round - Ike Woods and Valerie Hall (110 BPM)
TTITLE7=I Love My Baby - Mike Morgan and The Crawl (132 BPM)
TTITLE8=Brandi And Champagne - Earl Gaines (125 BPM)
TTITLE9=I Just Keep Falling In Love - Freddie Gorman (117 BPM)
TTITLE10=She's Sixty - Pelicans (124 BPM)
TTITLE11=If I Could Build My Whole World Around You - Donny and Susan Tr
TTITLE11=exler (118 BPM)
TTITLE12=Sugar Mama - Nighthawks (118 BPM)
TTITLE13=They Can't Take That Away From Me - Julie Davis (110 BPM)
TTITLE14=Kansas City Blues (Tribute To Joe Turner) - Tom Principato
EXTD=
EXTT0=
EXTT1=
EXTT2=
EXTT3=
EXTT4=
EXTT5=
EXTT6=
EXTT7=
EXTT8=
EXTT9=
EXTT10=
EXTT11=
EXTT12=
EXTT13=
EXTT14=
PLAYORDER=
